<svg width="180" height="40" viewBox="0 0 180 40" fill="none" xmlns="http://www.w3.org/2000/svg">
<!-- Airplane Icon -->
<path d="M20 5.00002V1.66669" stroke="white" stroke-width="3" stroke-linecap="round" stroke-linejoin="round"/>
<path d="M30 33.3333C30 36.095 27.7617 38.3333 25 38.3333C22.2383 38.3333 20 36.095 20 33.3333V25" stroke="white" stroke-width="3" stroke-linecap="round" stroke-linejoin="round"/>
<path d="M19.9998 5C15.0648 7.45583 11.6665 12.4475 11.6665 18.3333C11.6665 18.8992 11.6665 19.1667 11.6665 20" stroke="white" stroke-width="3" stroke-linecap="round" stroke-linejoin="round"/>
<path d="M20 5C24.935 7.45583 28.3333 12.4475 28.3333 18.3333C28.3333 18.8992 28.3333 19.1667 28.3333 20" stroke="white" stroke-width="3" stroke-linecap="round" stroke-linejoin="round"/>
<path d="M36.6666 20C35.8299 11.5775 28.6416 5 19.9999 5C11.3583 5 4.16992 11.5775 3.33325 20H36.6666Z" stroke="white" stroke-width="3" stroke-linecap="round" stroke-linejoin="round"/>
<path d="M20 20V5" stroke="white" stroke-width="3" stroke-linecap="round" stroke-linejoin="round"/>
<!-- Text: Parasol Airlines -->
<text x="50" y="25" fill="white" font-family="Arial" font-size="16" font-weight="bold">Parasol Airlines</text>
</svg>